<?xml version="1.0" encoding="UTF-8"?>
<svg id="Layer_2" data-name="Layer 2" xmlns="http://www.w3.org/2000/svg" viewBox="0 0 536.43 109.98">
  <defs>
    <style>
      .cls-1 {
        fill: #345c66;
      }

      .cls-2 {
        fill: #a91110;
      }
    </style>
  </defs>
  <g id="Layer_1-2" data-name="Layer 1">
    <g>
      <g>
        <path class="cls-1" d="M452.42,62.13c3.88,5.05,5.86,10.91,5.86,17.57,0,7.98-2.71,14.64-8.05,19.91-5.42,5.34-12.15,7.98-20.13,7.98h-36.75V4.15h31.92c7.39,0,13.62,2.42,18.67,7.32,4.98,4.91,7.47,11.06,7.47,18.3,0,5.05-1.32,9.66-4.03,13.84-2.71,4.17-6.08,7.1-10.1,8.93,6.22,1.39,11.28,4.61,15.16,9.59ZM402.35,12.57v37.34h21.16c4.98,0,9.3-1.83,12.89-5.42,3.59-3.59,5.42-8.05,5.42-13.4s-1.76-9.66-5.27-13.25c-3.51-3.51-7.83-5.27-13.03-5.27h-21.16ZM428.12,99.18c5.78,0,10.69-1.98,14.64-6,3.95-4.03,5.93-8.93,5.93-14.86s-1.98-10.76-5.86-14.64c-3.88-3.88-8.79-5.86-14.72-5.86h-25.77v41.37h25.77Z"/>
        <path class="cls-1" d="M430.09,109.98h-39.14V1.76h34.31c8.03,0,14.87,2.69,20.33,8,5.44,5.36,8.19,12.09,8.19,20.02,0,5.53-1.48,10.63-4.41,15.14-1.81,2.79-3.94,5.12-6.37,6.97,4.43,1.89,8.22,4.83,11.31,8.79h.01c4.21,5.5,6.35,11.9,6.35,19.04,0,8.61-2.95,15.88-8.76,21.61-5.83,5.75-13.17,8.67-21.81,8.67ZM395.73,105.21h34.37c7.45,0,13.48-2.39,18.46-7.29,4.87-4.81,7.34-10.93,7.34-18.21,0-6.06-1.8-11.48-5.36-16.11-3.54-4.53-8.17-7.47-13.79-8.72l-6.95-1.55,6.49-2.95c3.68-1.67,6.66-4.31,9.09-8.06,2.45-3.78,3.64-7.88,3.64-12.54,0-6.6-2.27-12.19-6.76-16.6-4.59-4.46-10.16-6.63-16.99-6.63h-29.53v98.68ZM428.12,101.57h-28.16v-46.14h28.16c6.53,0,12.05,2.21,16.4,6.56,4.35,4.35,6.56,9.85,6.56,16.33s-2.23,12.06-6.61,16.54c-4.38,4.46-9.88,6.72-16.35,6.72ZM404.73,96.79h23.38c5.21,0,9.45-1.73,12.94-5.29,3.53-3.6,5.25-7.91,5.25-13.19s-1.74-9.53-5.16-12.96c-3.47-3.47-7.73-5.16-13.03-5.16h-23.38v36.59ZM423.5,52.29h-23.55V10.18h23.55c5.81,0,10.76,2.01,14.72,5.97,3.97,4.05,5.97,9.07,5.97,14.94s-2.06,11.03-6.12,15.09c-4.06,4.06-8.96,6.12-14.57,6.12ZM404.73,47.52h18.77c4.3,0,8.07-1.59,11.2-4.72,3.18-3.17,4.72-7.01,4.72-11.71s-1.5-8.43-4.59-11.58c-3.06-3.06-6.77-4.55-11.33-4.55h-18.77v32.57Z"/>
      </g>
      <path class="cls-1" d="M225.35,97.93c-7.83-7.69-11.71-17.21-11.71-28.63s3.88-20.87,11.71-28.55c7.76-7.61,17.42-11.42,29.07-11.42,10.32,0,19.18,3.08,26.58,9.23s11.49,13.41,13.26,22.6c.12.62-.37,1.2-1,1.2h-11.55c-.46,0-.86-.31-.98-.75-1.6-5.74-4.69-10.46-9.32-14.11-4.83-3.81-10.47-5.71-16.99-5.71-7.91,0-14.42,2.64-19.62,7.83-5.2,5.27-7.83,11.86-7.83,19.77s2.64,14.5,7.83,19.69c5.2,5.27,11.71,7.91,19.62,7.91,6.52,0,12.15-1.9,17.06-5.71,4.63-3.65,7.71-8.37,9.25-14.1.12-.45.52-.76.98-.76h11.54c.63,0,1.12.57,1,1.2-1.77,9.19-6.17,16.7-13.26,22.6-7.39,6.15-16.25,9.23-26.58,9.23-11.64,0-21.31-3.81-29.07-11.49Z"/>
      <path class="cls-1" d="M382.11,74.73h-66.61c-.18,0-.31.16-.28.34,1.14,6.65,4.2,12.03,9.1,16.14,4.91,4.25,10.84,6.37,17.72,6.37,5.71,0,10.76-1.32,15.23-4.03,4.41-2.6,7.61-5.99,9.59-10.23.05-.1.15-.16.25-.16h13.62c.2,0,.34.2.27.39-2.81,7.73-7.66,13.97-14.51,18.65-7.03,4.83-15.15,7.25-24.45,7.25-11.64,0-21.31-3.81-28.99-11.49-7.76-7.69-11.64-17.21-11.64-28.63s3.88-20.87,11.64-28.55c7.69-7.61,17.35-11.42,28.99-11.42s21.23,3.81,28.99,11.49c7.76,7.69,11.64,17.21,11.64,28.55,0,1.54-.07,3.21-.26,5.09-.02.15-.14.26-.29.26ZM342.03,41.19c-6.81,0-12.59,2.05-17.43,6.08-4.82,3.96-7.87,9.18-9.23,15.61-.04.18.1.35.28.35h52.89c.18,0,.32-.17.28-.35-1.29-6.36-4.34-11.51-9.16-15.54-4.98-4.1-10.84-6.15-17.64-6.15Z"/>
      <g>
        <path class="cls-1" d="M466.17,15.33c0-4.98,3.66-8.57,8.71-8.57,4.18,0,7.58,2.77,8.33,6.83,1.11,5.91-4.16,11.26-10.07,10.15-4.09-.77-6.98-4.22-6.98-8.41Z"/>
        <path class="cls-1" d="M481.33,34.33v72.99c0,.85-.69,1.54-1.54,1.54h-9.8c-.85,0-1.54-.69-1.54-1.54V34.33c.07,0,.04,0,.11,0,0,.01,0,.03.01.04.02.1.06.2.09.3,0,.02.01.05.03.08.02.07.05.14.08.21.04.11.09.21.14.31.06.12.12.23.19.34.08.13.16.25.25.37.03.06.08.11.13.17.05.07.11.13.16.19.03.04.07.08.11.11.07.08.14.15.21.21.09.08.17.16.27.23.02.01.04.03.06.05.08.06.16.12.25.18.02.01.05.03.07.05.1.07.2.12.3.18.09.05.19.1.29.14.04.02.08.04.12.05.01,0,.03.02.05.02.08.03.17.07.25.1,0,0,.01,0,.02,0,.09.03.17.06.26.08,0,0,0,0,.02,0,.05.01.1.03.15.04.11.03.22.05.34.07.13.02.27.04.41.05.14.01.28.02.42.02h3.31c.14,0,.28,0,.42-.02.14,0,.27-.03.41-.05.11-.02.23-.04.34-.07.05,0,.1-.02.15-.04.11-.03.22-.06.32-.11.08-.02.15-.05.23-.09.02,0,.03-.01.05-.02.04-.01.08-.03.12-.05.09-.04.18-.09.26-.13,0,0,.02,0,.02-.01.11-.06.21-.11.3-.18.02-.01.05-.03.07-.05.09-.05.17-.11.25-.18.02-.01.04-.03.06-.05.09-.07.18-.15.27-.23.08-.07.15-.14.21-.21.03-.03.07-.07.11-.11,0,0,.01-.02.02-.03.07-.07.13-.15.19-.22.07-.08.12-.16.18-.25.1-.14.19-.3.28-.45.04-.08.09-.17.13-.25,0-.03.03-.07.04-.1.04-.11.09-.21.12-.32.04-.11.08-.22.11-.34,0-.01,0-.03.01-.04.07,0,.04,0,.11,0Z"/>
      </g>
      <path class="cls-1" d="M536.43,33.57v10.11c0,.42-.34.77-.77.77h-16.04c-.42,0-.77.34-.77.77v63.26c0,.42-.34.77-.77.77h-11.35c-.42,0-.77-.34-.77-.77v-63.26c0-.42-.34-.77-.77-.77h-14.94c-.42,0-.77-.34-.77-.77v-10.11c0-.42.34-.77.77-.77h14.94c.42,0,.77-.34.77-.77V13.45c0-.37.26-.68.62-.75l11.35-2.26c.47-.09.92.27.92.75v20.85c0,.42.34.77.77.77h16.04c.42,0,.77.34.77.77Z"/>
      <g>
        <path class="cls-1" d="M50,94.52h.75l9.15-25.49L87.18.95h12.3l-41.99,104.81h-13.95L1.41.95h12.75l26.99,68.08,8.85,25.49Z"/>
        <path class="cls-1" d="M58.14,106.72h-15.24L0,0h14.81l27.23,68.68,8.34,24.04,8.61-24.01L86.54,0h14.35l-42.75,106.72ZM44.19,104.81h12.65L98.07,1.91h-10.24l-27.05,67.48-9.36,26.09h-2.1l-9.07-26.13L13.51,1.91H2.83l41.37,102.9Z"/>
      </g>
      <g>
        <path class="cls-2" d="M151.27,83.52l10.59,5.77c-7.45,10.44-19.57,17.29-33.31,17.52-23,.38-42.16-18.18-42.48-41.18-.32-23.34,18.5-42.36,41.77-42.36,14.19,0,26.73,7.08,34.27,17.89l-10.74,5.53c-5.72-7.31-14.76-11.9-24.86-11.46-15.69.68-28.3,13.69-28.51,29.4-.22,16.67,13.22,30.25,29.84,30.25,9.5,0,17.96-4.44,23.43-11.36Z"/>
        <path class="cls-2" d="M157.68,65.04c0,6.98-2.4,13.4-6.41,18.48l-10.74-5.85c3.22-3.24,5.21-7.7,5.21-12.63s-2.03-9.47-5.3-12.72l10.93-5.63c3.95,5.07,6.31,11.43,6.31,18.35Z"/>
        <path class="cls-2" d="M205.42,65.04c0,15.24-4.4,29.46-11.99,41.45l-10.51-5.72c6.68-10.28,10.57-22.55,10.57-35.73s-3.68-24.78-10.03-34.89l10.64-5.48c7.18,11.76,11.32,25.58,11.32,40.37Z"/>
        <circle class="cls-2" cx="180.33" cy="14.01" r="7.82"/>
        <path class="cls-2" d="M181.55,65.04c0,11.1-3.37,21.43-9.15,30l-10.55-5.75c4.89-6.84,7.76-15.21,7.76-24.25s-2.77-17.12-7.5-23.89l10.68-5.51c5.53,8.45,8.75,18.55,8.75,29.4Z"/>
      </g>
    </g>
  </g>
</svg>