<svg width="512" height="512" viewBox="0 0 512 512" fill="none" xmlns="http://www.w3.org/2000/svg">
<path d="M275.555 351.583L313.021 371.996C286.664 408.932 243.785 433.166 195.175 433.979C113.805 435.324 46.0194 369.661 44.8873 288.291C43.7552 205.718 110.337 138.428 192.663 138.428C242.865 138.428 287.23 163.476 313.905 201.72L275.909 221.284C255.672 195.422 223.69 179.184 187.958 180.74C132.449 183.146 87.8367 229.174 87.0938 284.753C86.3155 343.729 133.864 391.773 192.663 391.773C226.273 391.773 256.203 376.065 275.555 351.583Z" fill="#A91110"/>
<path d="M298.237 286.203C298.237 310.897 289.746 333.61 275.559 351.582L237.563 330.886C248.954 319.423 255.995 303.644 255.995 286.203C255.995 268.761 248.813 252.699 237.244 241.201L275.913 221.283C289.887 239.22 298.237 261.721 298.237 286.203Z" fill="#A91110"/>
<path d="M467.127 286.205C467.127 340.122 451.56 390.43 424.708 432.848L387.525 412.612C411.158 376.243 424.92 332.834 424.92 286.205C424.92 239.576 411.901 198.537 389.436 162.769L427.079 143.382C452.48 184.987 467.127 233.88 467.127 286.205Z" fill="#A91110"/>
<path d="M378.363 133.332C393.643 133.332 406.029 120.945 406.029 105.666C406.029 90.3865 393.643 78 378.363 78C363.084 78 350.697 90.3865 350.697 105.666C350.697 120.945 363.084 133.332 378.363 133.332Z" fill="#A91110"/>
<path d="M382.68 286.204C382.68 325.474 370.757 362.02 350.309 392.34L312.984 371.997C330.284 347.798 340.438 318.186 340.438 286.204C340.438 254.222 330.638 225.636 313.904 201.685L351.688 182.191C371.253 212.086 382.645 247.818 382.645 286.204H382.68Z" fill="#A91110"/>
</svg>
